<svg viewBox="0 0 1700 720" xmlns="http://www.w3.org/2000/svg" font-family="Georgia, 'Times New Roman', serif">
  <defs>
    <style>
      .arrow-pulse-1 { stroke-dasharray: 10 5; animation: flow 1.2s linear infinite; }
      .arrow-pulse-2 { stroke-dasharray: 10 5; animation: flow 1.2s linear infinite 0.2s; }
      .arrow-pulse-3 { stroke-dasharray: 10 5; animation: flow 1.2s linear infinite 0.4s; }
      .arrow-pulse-4 { stroke-dasharray: 10 5; animation: flow 1.2s linear infinite 0.6s; }
      .arrow-pulse-5 { stroke-dasharray: 10 5; animation: flow 1.2s linear infinite 0.8s; }
      .arrow-pulse-6 { stroke-dasharray: 10 5; animation: flow 1.2s linear infinite 1.0s; }
      @keyframes flow { to { stroke-dashoffset: -30; } }
      .dot-pulse { animation: dotPulse 1.8s ease-in-out infinite; }
      @keyframes dotPulse { 0%,100%{r:4;opacity:1} 50%{r:6;opacity:0.5} }
      .breathe-orange { animation: bO 3s ease-in-out infinite; }
      @keyframes bO { 0%,100%{filter:drop-shadow(0 0 3px #F4A83666)} 50%{filter:drop-shadow(0 0 10px #F4A836aa)} }
      .breathe-blue { animation: bB 3s ease-in-out infinite 0.5s; }
      @keyframes bB { 0%,100%{filter:drop-shadow(0 0 3px #2496ED66)} 50%{filter:drop-shadow(0 0 10px #2496EDaa)} }
      .breathe-green { animation: bG 3s ease-in-out infinite 1s; }
      @keyframes bG { 0%,100%{filter:drop-shadow(0 0 3px #6DB33F66)} 50%{filter:drop-shadow(0 0 10px #6DB33Faa)} }
    </style>
    <marker id="mO" markerWidth="9" markerHeight="9" refX="7" refY="3" orient="auto"><path d="M0,0 L0,6 L9,3z" fill="#F4A836"/></marker>
    <marker id="mB" markerWidth="9" markerHeight="9" refX="7" refY="3" orient="auto"><path d="M0,0 L0,6 L9,3z" fill="#2496ED"/></marker>
    <marker id="mG" markerWidth="9" markerHeight="9" refX="7" refY="3" orient="auto"><path d="M0,0 L0,6 L9,3z" fill="#6DB33F"/></marker>
    <marker id="mBdown" markerWidth="9" markerHeight="9" refX="3" refY="7" orient="auto"><path d="M0,0 L6,0 L3,9z" fill="#2496ED"/></marker>
    <pattern id="grid" width="40" height="40" patternUnits="userSpaceOnUse">
      <path d="M40 0 L0 0 0 40" fill="none" stroke="#1a2030" stroke-width="0.8"/>
    </pattern>
  </defs>

  <!-- Background -->
  <rect width="1700" height="720" fill="#0D1117"/>
  <rect width="1700" height="720" fill="url(#grid)"/>

  <!-- Header -->
  <text x="850" y="34" text-anchor="middle" fill="#FFFFFF" font-size="15" font-weight="700" letter-spacing="4">GREETING-SERVICE · SYSTEM ARCHITECTURE</text>
  <line x1="280" y1="44" x2="1420" y2="44" stroke="#2496ED" stroke-width="0.6" opacity="0.5"/>

  <!-- ============================= -->
  <!-- STAGE 1: DEVELOPER            -->
  <!-- ============================= -->
  <g class="breathe-orange">
    <rect x="16" y="68" width="140" height="185" rx="10" fill="#0D1117" stroke="#FFFFFF" stroke-width="1.5"/>
  </g>
  <rect x="16" y="68" width="140" height="26" rx="10" fill="#FFFFFF" opacity="0.07"/>
  <text x="86" y="86" text-anchor="middle" fill="#FFFFFF" font-size="9" font-weight="700" letter-spacing="2">DEVELOPER</text>

  <!-- GitHub icon (octocat silhouette) -->
  <circle cx="86" cy="130" r="26" fill="#21262D" stroke="#FFFFFF" stroke-width="1.2"/>
  <!-- Octocat head -->
  <circle cx="86" cy="124" r="12" fill="#FFFFFF"/>
  <!-- Ears -->
  <circle cx="75" cy="118" r="4.5" fill="#FFFFFF"/>
  <circle cx="97" cy="118" r="4.5" fill="#FFFFFF"/>
  <!-- Tentacles -->
  <path d="M74,136 Q70,144 74,148" fill="none" stroke="#FFFFFF" stroke-width="2"/>
  <path d="M80,138 Q78,146 80,150" fill="none" stroke="#FFFFFF" stroke-width="2"/>
  <path d="M86,139 Q86,147 86,151" fill="none" stroke="#FFFFFF" stroke-width="2"/>
  <path d="M92,138 Q94,146 92,150" fill="none" stroke="#FFFFFF" stroke-width="2"/>
  <path d="M98,136 Q102,144 98,148" fill="none" stroke="#FFFFFF" stroke-width="2"/>
  <!-- Face -->
  <circle cx="81" cy="122" r="2" fill="#21262D"/>
  <circle cx="91" cy="122" r="2" fill="#21262D"/>
  <path d="M82,128 Q86,131 90,128" fill="none" stroke="#21262D" stroke-width="1.2"/>

  <text x="86" y="172" text-anchor="middle" fill="#9CA3AF" font-size="7">build-systems-lab</text>
  <text x="86" y="184" text-anchor="middle" fill="#9CA3AF" font-size="7">greetings-service</text>
  <rect x="30" y="192" width="112" height="14" rx="3" fill="#FFFFFF" opacity="0.05"/>
  <text x="86" y="203" text-anchor="middle" fill="#6B7280" font-size="6.5" font-style="italic">GitHub Repository</text>
  <text x="86" y="220" text-anchor="middle" fill="#6B7280" font-size="6.5">Source Control</text>
  <text x="86" y="232" text-anchor="middle" fill="#6B7280" font-size="6.5">Version Tracked</text>

  <!-- Arrow 1 -->
  <line x1="157" y1="160" x2="193" y2="160" stroke="#F4A836" stroke-width="2.5" marker-end="url(#mO)" class="arrow-pulse-1"/>
  <circle cx="159" cy="160" r="4" fill="#F4A836" class="dot-pulse"/>

  <!-- ============================= -->
  <!-- STAGE 2: MAVEN                -->
  <!-- ============================= -->
  <g class="breathe-orange">
    <rect x="195" y="58" width="192" height="390" rx="10" fill="#0D1117" stroke="#F4A836" stroke-width="2"/>
  </g>
  <rect x="195" y="58" width="192" height="28" rx="10" fill="#F4A836" opacity="0.16"/>

  <!-- Maven M icon in header -->
  <rect x="205" y="64" width="20" height="16" rx="3" fill="#F4A836" opacity="0.3"/>
  <text x="215" y="76" text-anchor="middle" fill="#F4A836" font-size="11" font-weight="700">M</text>
  <text x="291" y="77" text-anchor="middle" fill="#F4A836" font-size="9" font-weight="700" letter-spacing="1">MAVEN BUILD</text>

  <!-- Parent POM -->
  <rect x="207" y="97" width="168" height="95" rx="7" fill="#111827" stroke="#F4A836" stroke-width="1.2"/>
  <rect x="207" y="97" width="168" height="22" rx="7" fill="#F4A836" opacity="0.12"/>
  <!-- POM file icon -->
  <rect x="214" y="101" width="13" height="16" rx="1" fill="none" stroke="#F4A836" stroke-width="1"/>
  <path d="M222,101 L227,101 L227,106" fill="none" stroke="#F4A836" stroke-width="1"/>
  <line x1="216" y1="107" x2="224" y2="107" stroke="#F4A836" stroke-width="0.8"/>
  <line x1="216" y1="110" x2="224" y2="110" stroke="#F4A836" stroke-width="0.8"/>
  <text x="291" y="113" text-anchor="middle" fill="#F4A836" font-size="8.5" font-weight="700">Parent POM</text>
  <line x1="214" y1="119" x2="368" y2="119" stroke="#F4A836" stroke-width="0.5" opacity="0.3"/>
  <text x="291" y="133" text-anchor="middle" fill="#9CA3AF" font-size="7">Dependency Management</text>
  <text x="291" y="146" text-anchor="middle" fill="#9CA3AF" font-size="7">Plugin Management</text>
  <text x="291" y="159" text-anchor="middle" fill="#9CA3AF" font-size="7">Build Configuration</text>
  <rect x="217" y="168" width="148" height="14" rx="3" fill="#F4A836" opacity="0.07"/>
  <text x="291" y="179" text-anchor="middle" fill="#F4A836" font-size="6.5" font-style="italic">pom.xml — Project Object Model</text>

  <!-- Inherit arrow -->
  <line x1="291" y1="192" x2="291" y2="208" stroke="#F4A836" stroke-width="1.2" stroke-dasharray="3,2" marker-end="url(#mO)"/>
  <text x="312" y="204" fill="#F4A836" font-size="6.5" font-style="italic">inherits</text>

  <!-- greeting-api module -->
  <rect x="207" y="211" width="168" height="68" rx="7" fill="#111827" stroke="#F4A836" stroke-width="1.2"/>
  <rect x="207" y="211" width="168" height="22" rx="7" fill="#F4A836" opacity="0.12"/>
  <!-- Code brackets icon -->
  <text x="218" y="227" fill="#F4A836" font-size="13" font-weight="700">{ }</text>
  <text x="291" y="227" text-anchor="middle" fill="#F4A836" font-size="8.5" font-weight="700">greeting-api</text>
  <line x1="214" y1="233" x2="368" y2="233" stroke="#F4A836" stroke-width="0.5" opacity="0.3"/>
  <text x="291" y="247" text-anchor="middle" fill="#9CA3AF" font-size="7">Child Module</text>
  <text x="291" y="260" text-anchor="middle" fill="#9CA3AF" font-size="7">Inherits all versions from parent</text>
  <text x="291" y="272" text-anchor="middle" fill="#6B7280" font-size="6">Zero version duplication</text>

  <!-- Spring Boot app -->
  <rect x="207" y="290" width="168" height="78" rx="7" fill="#111827" stroke="#6DB33F" stroke-width="1.2"/>
  <rect x="207" y="290" width="168" height="22" rx="7" fill="#6DB33F" opacity="0.12"/>
  <!-- Spring leaf icon -->
  <path d="M213,302 Q219,294 225,301 Q219,308 213,302Z" fill="#6DB33F" opacity="0.9"/>
  <text x="291" y="306" text-anchor="middle" fill="#6DB33F" font-size="8.5" font-weight="700">Spring Boot 4.0.6</text>
  <line x1="214" y1="312" x2="368" y2="312" stroke="#6DB33F" stroke-width="0.5" opacity="0.3"/>
  <text x="291" y="326" text-anchor="middle" fill="#9CA3AF" font-size="7">GreetingController</text>
  <text x="291" y="338" text-anchor="middle" fill="#9CA3AF" font-size="7">Embedded Tomcat 11</text>
  <text x="291" y="350" text-anchor="middle" fill="#9CA3AF" font-size="7">Spring Actuator + Logback</text>
  <rect x="217" y="358" width="148" height="6" rx="2" fill="#6DB33F" opacity="0.15"/>

  <!-- Badges row -->
  <rect x="207" y="378" width="80" height="20" rx="4" fill="#1ABC9C" opacity="0.15"/>
  <!-- Coffee cup Java icon -->
  <text x="218" y="392" fill="#1ABC9C" font-size="10">☕</text>
  <text x="248" y="393" text-anchor="middle" fill="#1ABC9C" font-size="7" font-weight="700">Java 21</text>

  <rect x="296" y="378" width="92" height="20" rx="4" fill="#F4A836" opacity="0.15"/>
  <text x="306" y="392" fill="#F4A836" font-size="10" font-weight="700">M</text>
  <text x="340" y="393" text-anchor="middle" fill="#F4A836" font-size="7" font-weight="700">Maven 3.9.6</text>

  <rect x="207" y="404" width="168" height="20" rx="5" fill="#F4A836" opacity="0.09"/>
  <text x="291" y="418" text-anchor="middle" fill="#F4A836" font-size="7" font-style="italic">Multi-Module Architecture</text>

  <!-- Arrow 2 -->
  <line x1="387" y1="253" x2="423" y2="253" stroke="#F4A836" stroke-width="2.5" marker-end="url(#mO)" class="arrow-pulse-2"/>
  <circle cx="389" cy="253" r="4" fill="#F4A836" class="dot-pulse"/>

  <!-- ============================= -->
  <!-- STAGE 3: PACKAGE              -->
  <!-- ============================= -->
  <rect x="425" y="148" width="168" height="220" rx="10" fill="#0D1117" stroke="#F4A836" stroke-width="1.8"/>
  <rect x="425" y="148" width="168" height="28" rx="10" fill="#F4A836" opacity="0.15"/>
  <!-- Package box icon -->
  <path d="M435,164 L441,160 L447,164 L447,172 L441,176 L435,172Z" fill="none" stroke="#F4A836" stroke-width="1.2"/>
  <line x1="441" y1="160" x2="441" y2="176" stroke="#F4A836" stroke-width="0.8"/>
  <line x1="435" y1="168" x2="447" y2="168" stroke="#F4A836" stroke-width="0.8"/>
  <text x="509" y="167" text-anchor="middle" fill="#F4A836" font-size="9" font-weight="700" letter-spacing="1">PACKAGE</text>

  <rect x="437" y="186" width="144" height="40" rx="5" fill="#111827" stroke="#F4A836" stroke-width="0.8"/>
  <text x="509" y="202" text-anchor="middle" fill="#9CA3AF" font-size="6.5">mvn clean package</text>
  <text x="509" y="217" text-anchor="middle" fill="#F4A836" font-size="8" font-weight="700">mvn clean verify</text>

  <!-- JAR artifact -->
  <rect x="437" y="235" width="144" height="54" rx="5" fill="#111827" stroke="#6DB33F" stroke-width="1.2"/>
  <rect x="437" y="235" width="144" height="20" rx="5" fill="#6DB33F" opacity="0.12"/>
  <!-- JAR icon -->
  <rect x="444" y="238" width="14" height="17" rx="2" fill="none" stroke="#6DB33F" stroke-width="1"/>
  <line x1="444" y1="243" x2="458" y2="243" stroke="#6DB33F" stroke-width="0.8"/>
  <text x="509" y="250" text-anchor="middle" fill="#6DB33F" font-size="8" font-weight="700">Fat JAR</text>
  <text x="509" y="265" text-anchor="middle" fill="#9CA3AF" font-size="6">greeting-api-1.0-SNAPSHOT.jar</text>
  <text x="509" y="277" text-anchor="middle" fill="#9CA3AF" font-size="6">BOOT-INF · Embedded Tomcat</text>
  <text x="509" y="283" text-anchor="middle" fill="#4A5568" font-size="5.5"> </text>

  <!-- Quality badges -->
  <rect x="437" y="298" width="68" height="28" rx="4" fill="#E74C3C" opacity="0.18"/>
  <text x="450" y="310" fill="#E74C3C" font-size="11" font-weight="700">J</text>
  <text x="468" y="310" text-anchor="middle" fill="#E74C3C" font-size="7" font-weight="700">JaCoCo</text>
  <text x="471" y="321" text-anchor="middle" fill="#E74C3C" font-size="6">80% gate</text>

  <rect x="514" y="298" width="67" height="28" rx="4" fill="#E74C3C" opacity="0.18"/>
  <!-- Sonar wave icon -->
  <path d="M521,314 Q524,309 527,314 Q524,319 521,314Z" fill="#E74C3C" opacity="0.8"/>
  <text x="548" y="310" text-anchor="middle" fill="#E74C3C" font-size="7" font-weight="700">Sonar</text>
  <text x="548" y="321" text-anchor="middle" fill="#E74C3C" font-size="6">Analysis</text>

  <rect x="437" y="334" width="144" height="18" rx="4" fill="#6DB33F" opacity="0.08"/>
  <text x="509" y="347" text-anchor="middle" fill="#6DB33F" font-size="7" font-style="italic">Sonar-ready artifact · 229MB</text>

  <!-- Arrow 3 -->
  <line x1="593" y1="253" x2="629" y2="253" stroke="#2496ED" stroke-width="2.5" marker-end="url(#mB)" class="arrow-pulse-3"/>
  <circle cx="595" cy="253" r="4" fill="#2496ED" class="dot-pulse"/>

  <!-- ============================= -->
  <!-- STAGE 4: DOCKER BUILD         -->
  <!-- ============================= -->
  <g class="breathe-blue">
    <rect x="631" y="105" width="184" height="330" rx="10" fill="#0D1117" stroke="#2496ED" stroke-width="2"/>
  </g>
  <rect x="631" y="105" width="184" height="28" rx="10" fill="#2496ED" opacity="0.16"/>

  <!-- Docker whale icon in header -->
  <rect x="640" y="111" width="20" height="13" rx="2" fill="#2496ED" opacity="0.65"/>
  <rect x="643" y="107" width="5" height="6" rx="1" fill="#2496ED" opacity="0.65"/>
  <rect x="650" y="105" width="5" height="6" rx="1" fill="#2496ED" opacity="0.65"/>
  <rect x="657" y="108" width="5" height="6" rx="1" fill="#2496ED" opacity="0.65"/>
  <text x="723" y="124" text-anchor="middle" fill="#2496ED" font-size="9" font-weight="700" letter-spacing="1">DOCKER BUILD</text>

  <!-- Stage 1 Builder -->
  <rect x="642" y="143" width="162" height="118" rx="7" fill="#111827" stroke="#2496ED" stroke-width="1.2"/>
  <rect x="642" y="143" width="162" height="22" rx="7" fill="#2496ED" opacity="0.12"/>
  <!-- JDK chip icon -->
  <rect x="649" y="147" width="16" height="14" rx="2" fill="none" stroke="#2496ED" stroke-width="1"/>
  <line x1="649" y1="152" x2="665" y2="152" stroke="#2496ED" stroke-width="0.7"/>
  <line x1="649" y1="156" x2="665" y2="156" stroke="#2496ED" stroke-width="0.7"/>
  <text x="723" y="159" text-anchor="middle" fill="#2496ED" font-size="8" font-weight="700">Stage 1 — Builder</text>
  <line x1="649" y1="165" x2="797" y2="165" stroke="#2496ED" stroke-width="0.5" opacity="0.3"/>
  <text x="723" y="179" text-anchor="middle" fill="#9CA3AF" font-size="7">maven:3.9.6-eclipse-temurin-21</text>
  <text x="723" y="192" text-anchor="middle" fill="#9CA3AF" font-size="7">JDK 21 + Maven + Build Tools</text>
  <text x="723" y="205" text-anchor="middle" fill="#9CA3AF" font-size="7">Compile + Test + Package</text>
  <text x="723" y="218" text-anchor="middle" fill="#9CA3AF" font-size="7">dependency:go-offline cache</text>
  <rect x="652" y="226" width="142" height="14" rx="3" fill="#2496ED" opacity="0.07"/>
  <text x="723" y="237" text-anchor="middle" fill="#2496ED" font-size="6.5" font-style="italic">Full Build Environment</text>

  <!-- Down arrow between stages -->
  <line x1="723" y1="261" x2="723" y2="279" stroke="#2496ED" stroke-width="1.5" stroke-dasharray="4,2" marker-end="url(#mBdown)"/>
  <rect x="660" y="265" width="118" height="12" rx="2" fill="#0D1117"/>
  <text x="718" y="275" text-anchor="middle" fill="#4A5568" font-size="6.5">COPY --from=build *.jar</text>

  <!-- Stage 2 Runtime -->
  <rect x="642" y="282" width="162" height="112" rx="7" fill="#111827" stroke="#6DB33F" stroke-width="1.2"/>
  <rect x="642" y="282" width="162" height="22" rx="7" fill="#6DB33F" opacity="0.12"/>
  <!-- JRE chip icon -->
  <rect x="649" y="286" width="16" height="14" rx="2" fill="none" stroke="#6DB33F" stroke-width="1"/>
  <line x1="649" y1="291" x2="665" y2="291" stroke="#6DB33F" stroke-width="0.7"/>
  <line x1="649" y1="295" x2="665" y2="295" stroke="#6DB33F" stroke-width="0.7"/>
  <text x="723" y="298" text-anchor="middle" fill="#6DB33F" font-size="8" font-weight="700">Stage 2 — Runtime</text>
  <line x1="649" y1="304" x2="797" y2="304" stroke="#6DB33F" stroke-width="0.5" opacity="0.3"/>
  <text x="723" y="318" text-anchor="middle" fill="#9CA3AF" font-size="7">eclipse-temurin:21-jre-alpine</text>
  <text x="723" y="331" text-anchor="middle" fill="#9CA3AF" font-size="7">JRE only — No Maven, No JDK</text>
  <text x="723" y="344" text-anchor="middle" fill="#9CA3AF" font-size="7">mkdir /app/logs pre-created</text>
  <text x="723" y="357" text-anchor="middle" fill="#9CA3AF" font-size="7">app.jar copied from Stage 1</text>
  <rect x="652" y="364" width="142" height="14" rx="3" fill="#6DB33F" opacity="0.07"/>
  <text x="723" y="375" text-anchor="middle" fill="#6DB33F" font-size="6.5" font-style="italic">Optimized Production Image</text>

  <!-- Prod profile badge -->
  <rect x="642" y="404" width="162" height="20" rx="5" fill="#1ABC9C" opacity="0.12"/>
  <text x="723" y="418" text-anchor="middle" fill="#1ABC9C" font-size="7.5" font-weight="700">-Dspring.profiles.active=prod</text>

  <!-- Arrow 4 -->
  <line x1="815" y1="268" x2="851" y2="268" stroke="#2496ED" stroke-width="2.5" marker-end="url(#mB)" class="arrow-pulse-4"/>
  <circle cx="817" cy="268" r="4" fill="#2496ED" class="dot-pulse"/>

  <!-- ============================= -->
  <!-- STAGE 5: DOCKER IMAGE         -->
  <!-- ============================= -->
  <rect x="853" y="208" width="140" height="122" rx="10" fill="#0D1117" stroke="#2496ED" stroke-width="1.8"/>
  <rect x="853" y="208" width="140" height="26" rx="10" fill="#2496ED" opacity="0.15"/>
  <!-- Docker whale small -->
  <rect x="862" y="214" width="18" height="12" rx="2" fill="#2496ED" opacity="0.6"/>
  <rect x="865" y="210" width="4" height="5" rx="1" fill="#2496ED" opacity="0.6"/>
  <rect x="871" y="208" width="4" height="5" rx="1" fill="#2496ED" opacity="0.6"/>
  <rect x="877" y="211" width="4" height="5" rx="1" fill="#2496ED" opacity="0.6"/>
  <text x="923" y="226" text-anchor="middle" fill="#2496ED" font-size="9" font-weight="700">IMAGE</text>

  <text x="923" y="256" text-anchor="middle" fill="#FFFFFF" font-size="9" font-weight="700">greeting-api:latest</text>
  <rect x="868" y="262" width="110" height="14" rx="3" fill="#2496ED" opacity="0.1"/>
  <text x="923" y="273" text-anchor="middle" fill="#2496ED" font-size="7">229MB Runtime Image</text>
  <text x="923" y="289" text-anchor="middle" fill="#9CA3AF" font-size="6.5">temurin:21-jre-alpine</text>
  <text x="923" y="302" text-anchor="middle" fill="#9CA3AF" font-size="6.5">prod profile · port 9080</text>
  <text x="923" y="315" text-anchor="middle" fill="#9CA3AF" font-size="6.5">/app/logs/ pre-created</text>

  <!-- Arrow 5 -->
  <line x1="993" y1="268" x2="1029" y2="268" stroke="#2496ED" stroke-width="2.5" marker-end="url(#mB)" class="arrow-pulse-5"/>
  <circle cx="995" cy="268" r="4" fill="#2496ED" class="dot-pulse"/>

  <!-- ============================= -->
  <!-- STAGE 6: COMPOSE              -->
  <!-- ============================= -->
  <g class="breathe-blue">
    <rect x="1031" y="56" width="406" height="490" rx="12" fill="#0D1117" stroke="#2496ED" stroke-width="2.2"/>
  </g>
  <rect x="1031" y="56" width="406" height="30" rx="12" fill="#2496ED" opacity="0.16"/>
  <!-- Docker compose whale -->
  <rect x="1040" y="62" width="22" height="15" rx="2" fill="#2496ED" opacity="0.6"/>
  <rect x="1043" y="58" width="5" height="6" rx="1" fill="#2496ED" opacity="0.6"/>
  <rect x="1050" y="56" width="5" height="6" rx="1" fill="#2496ED" opacity="0.6"/>
  <rect x="1057" y="59" width="5" height="6" rx="1" fill="#2496ED" opacity="0.6"/>
  <text x="1234" y="77" text-anchor="middle" fill="#2496ED" font-size="11" font-weight="700" letter-spacing="2">DOCKER COMPOSE STACK</text>

  <!-- greetings-net border -->
  <rect x="1041" y="96" width="386" height="318" rx="8" fill="none" stroke="#2496ED" stroke-width="1" stroke-dasharray="7,4" opacity="0.4"/>
  <text x="1234" y="113" text-anchor="middle" fill="#2496ED" font-size="7.5" font-style="italic" opacity="0.65">greetings-net — bridge network</text>

  <!-- Network lines between containers -->
  <line x1="1161" y1="268" x2="1181" y2="268" stroke="#2496ED" stroke-width="1" stroke-dasharray="3,2" opacity="0.5"/>
  <line x1="1291" y1="268" x2="1311" y2="268" stroke="#2496ED" stroke-width="1" stroke-dasharray="3,2" opacity="0.5"/>

  <!-- Container 1: greeting-api -->
  <rect x="1051" y="123" width="110" height="278" rx="8" fill="#111827" stroke="#6DB33F" stroke-width="1.5"/>
  <rect x="1051" y="123" width="110" height="24" rx="8" fill="#6DB33F" opacity="0.16"/>
  <!-- Spring leaf icon -->
  <path d="M1058,136 Q1064,128 1070,135 Q1064,142 1058,136Z" fill="#6DB33F" opacity="0.9"/>
  <text x="1106" y="140" text-anchor="middle" fill="#6DB33F" font-size="8.5" font-weight="700">greeting-api</text>
  <line x1="1058" y1="147" x2="1154" y2="147" stroke="#6DB33F" stroke-width="0.5" opacity="0.3"/>
  <text x="1106" y="161" text-anchor="middle" fill="#9CA3AF" font-size="7">Spring Boot</text>
  <text x="1106" y="174" text-anchor="middle" fill="#9CA3AF" font-size="7">Port: 9080</text>
  <rect x="1061" y="181" width="90" height="15" rx="3" fill="#1ABC9C" opacity="0.18"/>
  <text x="1106" y="192" text-anchor="middle" fill="#1ABC9C" font-size="7" font-weight="700">prod profile</text>
  <line x1="1061" y1="203" x2="1151" y2="203" stroke="#6B7280" stroke-width="0.4" opacity="0.2"/>
  <text x="1106" y="217" text-anchor="middle" fill="#9CA3AF" font-size="6.5">GET /greet</text>
  <text x="1106" y="229" text-anchor="middle" fill="#9CA3AF" font-size="6.5">GET /actuator</text>
  <line x1="1061" y1="238" x2="1151" y2="238" stroke="#6B7280" stroke-width="0.4" opacity="0.2"/>
  <!-- Logback section -->
  <rect x="1061" y="242" width="90" height="15" rx="3" fill="#9B59B6" opacity="0.15"/>
  <!-- Logback L icon -->
  <text x="1072" y="253" fill="#9B59B6" font-size="8" font-weight="700">L</text>
  <text x="1106" y="253" text-anchor="middle" fill="#9B59B6" font-size="7" font-weight="700">Logback</text>
  <text x="1106" y="267" text-anchor="middle" fill="#9CA3AF" font-size="6.5">RollingFile</text>
  <text x="1106" y="279" text-anchor="middle" fill="#9CA3AF" font-size="6.5">/app/logs/</text>
  <text x="1106" y="291" text-anchor="middle" fill="#9CA3AF" font-size="6.5">10MB · 30 days</text>
  <line x1="1061" y1="300" x2="1151" y2="300" stroke="#6B7280" stroke-width="0.4" opacity="0.2"/>
  <text x="1106" y="313" text-anchor="middle" fill="#9CA3AF" font-size="6">SLF4J → Logback</text>
  <rect x="1061" y="320" width="90" height="14" rx="3" fill="#6DB33F" opacity="0.08"/>
  <text x="1106" y="331" text-anchor="middle" fill="#6DB33F" font-size="6.5" font-style="italic">Java 21 Runtime</text>
  <text x="1106" y="348" text-anchor="middle" fill="#4A5568" font-size="5.5">greeting-api:latest</text>
  <text x="1106" y="360" text-anchor="middle" fill="#4A5568" font-size="5.5">temurin:21-jre-alpine</text>
  <text x="1106" y="372" text-anchor="middle" fill="#4A5568" font-size="5.5">restart: unless-stopped</text>
  <text x="1106" y="384" text-anchor="middle" fill="#4A5568" font-size="5.5">vol: greeting-logs</text>
  <text x="1106" y="393" text-anchor="middle" fill="#4A5568" font-size="5.5"> </text>

  <!-- Container 2: SonarQube -->
  <rect x="1181" y="123" width="110" height="278" rx="8" fill="#111827" stroke="#E74C3C" stroke-width="1.5"/>
  <rect x="1181" y="123" width="110" height="24" rx="8" fill="#E74C3C" opacity="0.16"/>
  <!-- SonarQube wave icon -->
  <path d="M1188,136 Q1192,129 1196,136 Q1192,143 1188,136Z" fill="#E74C3C" opacity="0.9"/>
  <path d="M1193,133 Q1197,127 1201,133" fill="none" stroke="#E74C3C" stroke-width="1" opacity="0.6"/>
  <text x="1236" y="140" text-anchor="middle" fill="#E74C3C" font-size="8.5" font-weight="700">sonarqube</text>
  <line x1="1188" y1="147" x2="1284" y2="147" stroke="#E74C3C" stroke-width="0.5" opacity="0.3"/>
  <text x="1236" y="161" text-anchor="middle" fill="#9CA3AF" font-size="7">Static Analysis</text>
  <text x="1236" y="174" text-anchor="middle" fill="#9CA3AF" font-size="7">Port: 9000</text>
  <rect x="1191" y="181" width="90" height="15" rx="3" fill="#E74C3C" opacity="0.15"/>
  <text x="1236" y="192" text-anchor="middle" fill="#E74C3C" font-size="7" font-weight="700">lts-community</text>
  <line x1="1191" y1="203" x2="1281" y2="203" stroke="#6B7280" stroke-width="0.4" opacity="0.2"/>
  <text x="1236" y="217" text-anchor="middle" fill="#9CA3AF" font-size="6.5">Code Smells</text>
  <text x="1236" y="229" text-anchor="middle" fill="#9CA3AF" font-size="6.5">Bugs + Security</text>
  <text x="1236" y="241" text-anchor="middle" fill="#9CA3AF" font-size="6.5">Duplications</text>
  <text x="1236" y="253" text-anchor="middle" fill="#9CA3AF" font-size="6.5">Coverage Metrics</text>
  <line x1="1191" y1="262" x2="1281" y2="262" stroke="#6B7280" stroke-width="0.4" opacity="0.2"/>
  <rect x="1191" y="266" width="90" height="15" rx="3" fill="#E74C3C" opacity="0.1"/>
  <text x="1236" y="277" text-anchor="middle" fill="#E74C3C" font-size="7" font-weight="700">Quality Gate</text>
  <text x="1236" y="292" text-anchor="middle" fill="#9CA3AF" font-size="6.5">JaCoCo Report</text>
  <text x="1236" y="304" text-anchor="middle" fill="#9CA3AF" font-size="6.5">91.7% Coverage</text>
  <text x="1236" y="316" text-anchor="middle" fill="#9CA3AF" font-size="6.5">0 Bugs · 0 Vulns</text>
  <text x="1236" y="328" text-anchor="middle" fill="#9CA3AF" font-size="6.5">Reliability A · Security A</text>
  <line x1="1191" y1="338" x2="1281" y2="338" stroke="#6B7280" stroke-width="0.4" opacity="0.2"/>
  <text x="1236" y="352" text-anchor="middle" fill="#4A5568" font-size="5.5">sonarqube:lts-community</text>
  <text x="1236" y="364" text-anchor="middle" fill="#4A5568" font-size="5.5">vol: sonarqube_data</text>
  <text x="1236" y="376" text-anchor="middle" fill="#4A5568" font-size="5.5">vol: sonarqube_logs</text>
  <text x="1236" y="388" text-anchor="middle" fill="#4A5568" font-size="5.5">restart: unless-stopped</text>
  <text x="1236" y="395" text-anchor="middle" fill="#4A5568" font-size="5.5"> </text>

  <!-- Container 3: Snyk -->
  <rect x="1311" y="123" width="110" height="278" rx="8" fill="#111827" stroke="#E74C3C" stroke-width="1.5"/>
  <rect x="1311" y="123" width="110" height="24" rx="8" fill="#E74C3C" opacity="0.16"/>
  <!-- Snyk shield icon -->
  <path d="M1318,143 L1323,137 L1328,143 L1328,150 Q1323,154 1318,150Z" fill="none" stroke="#E74C3C" stroke-width="1.3"/>
  <text x="1323" y="147" text-anchor="middle" fill="#E74C3C" font-size="6" font-weight="700">S</text>
  <text x="1366" y="140" text-anchor="middle" fill="#E74C3C" font-size="8.5" font-weight="700">snyk</text>
  <line x1="1318" y1="147" x2="1414" y2="147" stroke="#E74C3C" stroke-width="0.5" opacity="0.3"/>
  <text x="1366" y="161" text-anchor="middle" fill="#9CA3AF" font-size="7">Vulnerability Scan</text>
  <text x="1366" y="174" text-anchor="middle" fill="#9CA3AF" font-size="7">Maven + Image</text>
  <rect x="1321" y="181" width="90" height="15" rx="3" fill="#E74C3C" opacity="0.15"/>
  <text x="1366" y="192" text-anchor="middle" fill="#E74C3C" font-size="7" font-weight="700">snyk/snyk:maven</text>
  <line x1="1321" y1="203" x2="1411" y2="203" stroke="#6B7280" stroke-width="0.4" opacity="0.2"/>
  <text x="1366" y="217" text-anchor="middle" fill="#9CA3AF" font-size="6.5">CVE Scanning</text>
  <text x="1366" y="229" text-anchor="middle" fill="#9CA3AF" font-size="6.5">Dep Tree Check</text>
  <text x="1366" y="241" text-anchor="middle" fill="#9CA3AF" font-size="6.5">Image Scan</text>
  <text x="1366" y="253" text-anchor="middle" fill="#9CA3AF" font-size="6.5">SNYK_TOKEN env</text>
  <line x1="1321" y1="262" x2="1411" y2="262" stroke="#6B7280" stroke-width="0.4" opacity="0.2"/>
  <rect x="1321" y="266" width="90" height="15" rx="3" fill="#E74C3C" opacity="0.1"/>
  <text x="1366" y="277" text-anchor="middle" fill="#E74C3C" font-size="7" font-weight="700">Security Gate</text>
  <text x="1366" y="292" text-anchor="middle" fill="#9CA3AF" font-size="6.5">Critical / High</text>
  <text x="1366" y="304" text-anchor="middle" fill="#9CA3AF" font-size="6.5">Medium / Low</text>
  <text x="1366" y="316" text-anchor="middle" fill="#9CA3AF" font-size="6.5">Blocks on Critical</text>
  <text x="1366" y="328" text-anchor="middle" fill="#9CA3AF" font-size="6.5">Supply Chain Safety</text>
  <line x1="1321" y1="338" x2="1411" y2="338" stroke="#6B7280" stroke-width="0.4" opacity="0.2"/>
  <text x="1366" y="352" text-anchor="middle" fill="#4A5568" font-size="5.5">snyk/snyk:maven</text>
  <text x="1366" y="364" text-anchor="middle" fill="#4A5568" font-size="5.5">SNYK_TOKEN via .env</text>
  <text x="1366" y="376" text-anchor="middle" fill="#4A5568" font-size="5.5">tail -f /dev/null</text>
  <text x="1366" y="388" text-anchor="middle" fill="#4A5568" font-size="5.5">docker compose run</text>

  <!-- Volumes -->
  <rect x="1041" y="420" width="386" height="48" rx="7" fill="#111827" stroke="#4A5568" stroke-width="1" opacity="0.7"/>
  <text x="1234" y="438" text-anchor="middle" fill="#4A5568" font-size="7.5" font-weight="700" letter-spacing="1">PERSISTENT VOLUMES</text>
  <text x="1234" y="454" text-anchor="middle" fill="#4A5568" font-size="6.5">greeting-logs  ·  sonarqube_data  ·  sonarqube_extensions  ·  sonarqube_logs</text>

  <!-- ENV -->
  <rect x="1041" y="476" width="386" height="48" rx="7" fill="#111827" stroke="#1ABC9C" stroke-width="1" opacity="0.7"/>
  <text x="1234" y="494" text-anchor="middle" fill="#1ABC9C" font-size="7.5" font-weight="700" letter-spacing="1">ENVIRONMENT VARIABLES</text>
  <text x="1234" y="510" text-anchor="middle" fill="#4A5568" font-size="6.5">SPRING_PROFILES_ACTIVE=prod  ·  SONAR_HOST_URL  ·  SNYK_TOKEN</text>

  <!-- Arrow 6 -->
  <line x1="1437" y1="300" x2="1473" y2="300" stroke="#6DB33F" stroke-width="2.5" marker-end="url(#mG)" class="arrow-pulse-6"/>
  <circle cx="1439" cy="300" r="4" fill="#6DB33F" class="dot-pulse"/>

  <!-- ============================= -->
  <!-- STAGE 7: RUNTIME              -->
  <!-- ============================= -->
  <g class="breathe-green">
    <rect x="1475" y="155" width="210" height="350" rx="10" fill="#0D1117" stroke="#6DB33F" stroke-width="1.8"/>
  </g>
  <rect x="1475" y="155" width="210" height="28" rx="10" fill="#6DB33F" opacity="0.16"/>
  <!-- Spring leaf large -->
  <path d="M1483,168 Q1490,160 1497,167 Q1490,174 1483,168Z" fill="#6DB33F" opacity="0.9"/>
  <text x="1580" y="173" text-anchor="middle" fill="#6DB33F" font-size="9" font-weight="700" letter-spacing="1">RUNTIME</text>

  <!-- HTTP Endpoint -->
  <rect x="1486" y="193" width="188" height="52" rx="6" fill="#111827" stroke="#6DB33F" stroke-width="1.2"/>
  <rect x="1486" y="193" width="188" height="20" rx="6" fill="#6DB33F" opacity="0.1"/>
  <text x="1580" y="208" text-anchor="middle" fill="#6DB33F" font-size="8" font-weight="700">GET /greet?name=Kate</text>
  <line x1="1493" y1="213" x2="1667" y2="213" stroke="#6DB33F" stroke-width="0.5" opacity="0.3"/>
  <text x="1580" y="226" text-anchor="middle" fill="#9CA3AF" font-size="7">→  Hello, Kate!</text>
  <text x="1580" y="238" text-anchor="middle" fill="#4A5568" font-size="6">HTTP 200 · text/plain</text>

  <!-- Actuator -->
  <rect x="1486" y="253" width="188" height="42" rx="6" fill="#111827" stroke="#6DB33F" stroke-width="1" opacity="0.7"/>
  <text x="1580" y="269" text-anchor="middle" fill="#6DB33F" font-size="7.5" font-weight="700">GET /actuator/health</text>
  <text x="1580" y="283" text-anchor="middle" fill="#9CA3AF" font-size="7">status: UP · HTTP 200</text>
  <text x="1580" y="289" text-anchor="middle" fill="#4A5568" font-size="5.5"> </text>

  <!-- Logback -->
  <rect x="1486" y="303" width="188" height="80" rx="6" fill="#111827" stroke="#9B59B6" stroke-width="1.2"/>
  <rect x="1486" y="303" width="188" height="20" rx="6" fill="#9B59B6" opacity="0.12"/>
  <!-- Logback icon -->
  <path d="M1493,315 Q1498,308 1503,315 Q1498,322 1493,315Z" fill="#9B59B6" opacity="0.8"/>
  <text x="1580" y="318" text-anchor="middle" fill="#9B59B6" font-size="8" font-weight="700">Logback — Prod Profile</text>
  <line x1="1493" y1="323" x2="1667" y2="323" stroke="#9B59B6" stroke-width="0.5" opacity="0.3"/>
  <text x="1580" y="337" text-anchor="middle" fill="#9CA3AF" font-size="7">RollingFileAppender</text>
  <text x="1580" y="350" text-anchor="middle" fill="#9CA3AF" font-size="7">/app/logs/greeting-api.log</text>
  <text x="1580" y="363" text-anchor="middle" fill="#9CA3AF" font-size="7">Rotate: 10MB · Retain: 30 days</text>
  <text x="1580" y="375" text-anchor="middle" fill="#4A5568" font-size="6">SLF4J abstraction → Logback engine</text>

  <!-- Profile comparison -->
  <rect x="1486" y="392" width="90" height="20" rx="4" fill="#1ABC9C" opacity="0.15"/>
  <text x="1531" y="406" text-anchor="middle" fill="#1ABC9C" font-size="7" font-weight="700">prod:9080 file</text>
  <rect x="1584" y="392" width="90" height="20" rx="4" fill="#9B59B6" opacity="0.15"/>
  <text x="1629" y="406" text-anchor="middle" fill="#9B59B6" font-size="7" font-weight="700">dev:9090 console</text>

  <!-- Config -->
  <rect x="1486" y="420" width="188" height="35" rx="5" fill="#111827" stroke="#1ABC9C" stroke-width="1" opacity="0.7"/>
  <text x="1580" y="435" text-anchor="middle" fill="#1ABC9C" font-size="7.5" font-weight="700">Spring Profiles</text>
  <text x="1580" y="448" text-anchor="middle" fill="#4A5568" font-size="6.5">application.properties · logback-spring.xml</text>

  <!-- Spring profiles note -->
  <rect x="1486" y="463" width="188" height="30" rx="5" fill="#111827" stroke="#F4A836" stroke-width="1" opacity="0.6"/>
  <text x="1580" y="477" text-anchor="middle" fill="#F4A836" font-size="7">Maven + Spring wired together</text>
  <text x="1580" y="489" text-anchor="middle" fill="#4A5568" font-size="6">-P maven-profile activates spring profile</text>

  <!-- ============================= -->
  <!-- BOTTOM LEGEND                 -->
  <!-- ============================= -->
  <rect x="16" y="556" width="130" height="22" rx="5" fill="#9B59B6" opacity="0.15"/>
  <text x="81" y="571" text-anchor="middle" fill="#9B59B6" font-size="7.5" font-weight="700">SLF4J + Logback</text>

  <rect x="158" y="556" width="155" height="22" rx="5" fill="#1ABC9C" opacity="0.15"/>
  <text x="235" y="571" text-anchor="middle" fill="#1ABC9C" font-size="7.5" font-weight="700">Spring Profiles dev | prod</text>

  <rect x="325" y="556" width="168" height="22" rx="5" fill="#2496ED" opacity="0.15"/>
  <text x="409" y="571" text-anchor="middle" fill="#2496ED" font-size="7.5" font-weight="700">Docker Compose Network</text>

  <rect x="505" y="556" width="175" height="22" rx="5" fill="#E74C3C" opacity="0.15"/>
  <text x="592" y="571" text-anchor="middle" fill="#E74C3C" font-size="7.5" font-weight="700">Static Analysis + CVE Scan</text>

  <rect x="692" y="556" width="175" height="22" rx="5" fill="#F4A836" opacity="0.15"/>
  <text x="779" y="571" text-anchor="middle" fill="#F4A836" font-size="7.5" font-weight="700">Maven Multi-Module Build</text>

  <rect x="879" y="556" width="160" height="22" rx="5" fill="#6DB33F" opacity="0.15"/>
  <text x="959" y="571" text-anchor="middle" fill="#6DB33F" font-size="7.5" font-weight="700">Profile-Aware Runtime</text>

  <rect x="1051" y="556" width="140" height="22" rx="5" fill="#1ABC9C" opacity="0.15"/>
  <text x="1121" y="571" text-anchor="middle" fill="#1ABC9C" font-size="7.5" font-weight="700">☕ Java 21 · Boot 4.0.6</text>

  <!-- Footer -->
  <line x1="16" y1="592" x2="1684" y2="592" stroke="#161B22" stroke-width="1"/>
  <text x="850" y="608" text-anchor="middle" fill="#374151" font-size="7" letter-spacing="1.5">greeting-service · build-systems-lab · Kate-mwaura · Java 21 · Spring Boot 4.0.6 · Maven 3.9.6 · Docker · SonarQube · Snyk · Logback</text>
</svg>
