<svg viewBox="0 0 1600 700" xmlns="http://www.w3.org/2000/svg" font-family="'JetBrains Mono', 'Fira Code', 'Courier New', monospace">
  <defs>
    <!-- Animated flow markers -->
    <marker id="arrowOrange" markerWidth="8" markerHeight="8" refX="6" refY="3" orient="auto">
      <path d="M0,0 L0,6 L8,3 z" fill="#F4A836"/>
    </marker>
    <marker id="arrowBlue" markerWidth="8" markerHeight="8" refX="6" refY="3" orient="auto">
      <path d="M0,0 L0,6 L8,3 z" fill="#2496ED"/>
    </marker>
    <marker id="arrowGreen" markerWidth="8" markerHeight="8" refX="6" refY="3" orient="auto">
      <path d="M0,0 L0,6 L8,3 z" fill="#6DB33F"/>
    </marker>
    <marker id="arrowGrey" markerWidth="8" markerHeight="8" refX="6" refY="3" orient="auto">
      <path d="M0,0 L0,6 L8,3 z" fill="#4A5568"/>
    </marker>

    <!-- Glow filters -->
    <filter id="glowOrange" x="-20%" y="-20%" width="140%" height="140%">
      <feGaussianBlur stdDeviation="3" result="blur"/>
      <feMerge><feMergeNode in="blur"/><feMergeNode in="SourceGraphic"/></feMerge>
    </filter>
    <filter id="glowBlue" x="-20%" y="-20%" width="140%" height="140%">
      <feGaussianBlur stdDeviation="3" result="blur"/>
      <feMerge><feMergeNode in="blur"/><feMergeNode in="SourceGraphic"/></feMerge>
    </filter>
    <filter id="glowGreen" x="-20%" y="-20%" width="140%" height="140%">
      <feGaussianBlur stdDeviation="2" result="blur"/>
      <feMerge><feMergeNode in="blur"/><feMergeNode in="SourceGraphic"/></feMerge>
    </filter>

    <!-- Animated dash for arrows -->
    <style>
      .arrow-main {
        stroke-dasharray: 8 4;
        animation: dashFlow 1.5s linear infinite;
      }
      .arrow-main-2 {
        stroke-dasharray: 8 4;
        animation: dashFlow 1.5s linear infinite 0.3s;
      }
      .arrow-main-3 {
        stroke-dasharray: 8 4;
        animation: dashFlow 1.5s linear infinite 0.6s;
      }
      .arrow-main-4 {
        stroke-dasharray: 8 4;
        animation: dashFlow 1.5s linear infinite 0.9s;
      }
      .arrow-main-5 {
        stroke-dasharray: 8 4;
        animation: dashFlow 1.5s linear infinite 1.2s;
      }
      .arrow-main-6 {
        stroke-dasharray: 8 4;
        animation: dashFlow 1.5s linear infinite 1.5s;
      }
      @keyframes dashFlow {
        to { stroke-dashoffset: -24; }
      }
      .pulse-dot {
        animation: pulseDot 2s ease-in-out infinite;
      }
      @keyframes pulseDot {
        0%, 100% { opacity: 1; r: 4; }
        50% { opacity: 0.4; r: 6; }
      }
      .card-glow {
        animation: cardPulse 3s ease-in-out infinite;
      }
      @keyframes cardPulse {
        0%, 100% { opacity: 0.6; }
        50% { opacity: 1; }
      }
      .label-fade {
        animation: labelFade 0.8s ease-out forwards;
      }
    </style>
  </defs>

  <!-- Background -->
  <rect width="1600" height="700" fill="#0D1117"/>

  <!-- Subtle grid -->
  <pattern id="grid" width="40" height="40" patternUnits="userSpaceOnUse">
    <path d="M 40 0 L 0 0 0 40" fill="none" stroke="#161B22" stroke-width="1"/>
  </pattern>
  <rect width="1600" height="700" fill="url(#grid)"/>

  <!-- Title -->
  <text x="800" y="38" text-anchor="middle" fill="#FFFFFF" font-size="15" font-weight="700" letter-spacing="3">GREETING-SERVICE — SYSTEM ARCHITECTURE</text>
  <line x1="600" y1="48" x2="1000" y2="48" stroke="#4A5568" stroke-width="1"/>

  <!-- ===================== -->
  <!-- STAGE 1: DEVELOPER    -->
  <!-- ===================== -->
  <rect x="20" y="80" width="130" height="160" rx="10" fill="#161B22" stroke="#FFFFFF" stroke-width="1.5" opacity="0.9"/>
  <text x="85" y="100" text-anchor="middle" fill="#FFFFFF" font-size="9" font-weight="700" letter-spacing="1">DEVELOPER</text>
  <!-- Person icon -->
  <circle cx="85" cy="128" r="14" fill="none" stroke="#FFFFFF" stroke-width="1.5"/>
  <line x1="85" y1="142" x2="85" y2="168" stroke="#FFFFFF" stroke-width="1.5"/>
  <line x1="68" y1="152" x2="102" y2="152" stroke="#FFFFFF" stroke-width="1.5"/>
  <line x1="85" y1="168" x2="72" y2="182" stroke="#FFFFFF" stroke-width="1.5"/>
  <line x1="85" y1="168" x2="98" y2="182" stroke="#FFFFFF" stroke-width="1.5"/>
  <text x="85" y="204" text-anchor="middle" fill="#4A5568" font-size="7">build-systems-lab</text>
  <text x="85" y="216" text-anchor="middle" fill="#4A5568" font-size="7">greetings-service</text>
  <text x="85" y="228" text-anchor="middle" fill="#4A5568" font-size="7">GitHub</text>

  <!-- Arrow 1: Developer → Maven -->
  <line x1="150" y1="160" x2="188" y2="160" stroke="#F4A836" stroke-width="2" marker-end="url(#arrowOrange)" class="arrow-main"/>
  <circle cx="152" cy="160" r="4" fill="#F4A836" class="pulse-dot"/>

  <!-- ===================== -->
  <!-- STAGE 2: MAVEN        -->
  <!-- ===================== -->
  <rect x="190" y="80" width="180" height="340" rx="10" fill="#161B22" stroke="#F4A836" stroke-width="1.5"/>
  <rect x="190" y="80" width="180" height="28" rx="10" fill="#F4A836" opacity="0.15"/>
  <text x="280" y="98" text-anchor="middle" fill="#F4A836" font-size="9" font-weight="700" letter-spacing="1">MAVEN BUILD SYSTEM</text>

  <!-- Parent POM card -->
  <rect x="205" y="118" width="150" height="70" rx="6" fill="#0D1117" stroke="#F4A836" stroke-width="1" opacity="0.8"/>
  <text x="280" y="135" text-anchor="middle" fill="#F4A836" font-size="8" font-weight="700">Parent POM</text>
  <line x1="215" y1="140" x2="345" y2="140" stroke="#F4A836" stroke-width="0.5" opacity="0.4"/>
  <text x="280" y="154" text-anchor="middle" fill="#6B7280" font-size="7">Dependency Management</text>
  <text x="280" y="165" text-anchor="middle" fill="#6B7280" font-size="7">Plugin Management</text>
  <text x="280" y="176" text-anchor="middle" fill="#6B7280" font-size="7">Build Configuration</text>

  <!-- Inheritance arrow -->
  <line x1="280" y1="188" x2="280" y2="205" stroke="#F4A836" stroke-width="1" stroke-dasharray="3,2" marker-end="url(#arrowOrange)"/>
  <text x="295" y="200" fill="#F4A836" font-size="7">inherits</text>

  <!-- greeting-api card -->
  <rect x="205" y="208" width="150" height="55" rx="6" fill="#0D1117" stroke="#F4A836" stroke-width="1" opacity="0.8"/>
  <text x="280" y="225" text-anchor="middle" fill="#F4A836" font-size="8" font-weight="700">greeting-api</text>
  <line x1="215" y1="230" x2="345" y2="230" stroke="#F4A836" stroke-width="0.5" opacity="0.4"/>
  <text x="280" y="244" text-anchor="middle" fill="#6B7280" font-size="7">Child Module</text>
  <text x="280" y="255" text-anchor="middle" fill="#6B7280" font-size="7">Spring Boot App</text>

  <!-- Spring Boot card -->
  <rect x="205" y="278" width="150" height="55" rx="6" fill="#0D1117" stroke="#6DB33F" stroke-width="1" opacity="0.8"/>
  <text x="280" y="295" text-anchor="middle" fill="#6DB33F" font-size="8" font-weight="700">Spring Boot 4.0.6</text>
  <line x1="215" y1="300" x2="345" y2="300" stroke="#6DB33F" stroke-width="0.5" opacity="0.4"/>
  <text x="280" y="314" text-anchor="middle" fill="#6B7280" font-size="7">REST Controller</text>
  <text x="280" y="325" text-anchor="middle" fill="#6B7280" font-size="7">Actuator + Logback</text>

  <!-- Badge -->
  <rect x="210" y="348" width="140" height="18" rx="4" fill="#F4A836" opacity="0.15"/>
  <text x="280" y="361" text-anchor="middle" fill="#F4A836" font-size="7" font-weight="700">Multi-Module Architecture</text>

  <!-- Java version badge -->
  <rect x="210" y="372" width="65" height="18" rx="4" fill="#1ABC9C" opacity="0.15"/>
  <text x="242" y="385" text-anchor="middle" fill="#1ABC9C" font-size="7">Java 21</text>
  <rect x="285" y="372" width="65" height="18" rx="4" fill="#1ABC9C" opacity="0.15"/>
  <text x="317" y="385" text-anchor="middle" fill="#1ABC9C" font-size="7">Maven 3.9.6</text>

  <!-- Arrow 2: Maven → Package -->
  <line x1="370" y1="250" x2="408" y2="250" stroke="#F4A836" stroke-width="2" marker-end="url(#arrowOrange)" class="arrow-main-2"/>
  <circle cx="372" cy="250" r="4" fill="#F4A836" class="pulse-dot"/>

  <!-- ===================== -->
  <!-- STAGE 3: PACKAGE      -->
  <!-- ===================== -->
  <rect x="410" y="160" width="160" height="200" rx="10" fill="#161B22" stroke="#F4A836" stroke-width="1.5"/>
  <rect x="410" y="160" width="160" height="28" rx="10" fill="#F4A836" opacity="0.15"/>
  <text x="490" y="178" text-anchor="middle" fill="#F4A836" font-size="9" font-weight="700" letter-spacing="1">PACKAGE</text>

  <rect x="425" y="198" width="130" height="35" rx="5" fill="#0D1117" stroke="#F4A836" stroke-width="1" opacity="0.6"/>
  <text x="490" y="211" text-anchor="middle" fill="#6B7280" font-size="7">mvn clean package</text>
  <text x="490" y="224" text-anchor="middle" fill="#F4A836" font-size="8" font-weight="700">mvn clean verify</text>

  <rect x="425" y="243" width="130" height="45" rx="5" fill="#0D1117" stroke="#6DB33F" stroke-width="1" opacity="0.8"/>
  <text x="490" y="258" text-anchor="middle" fill="#6DB33F" font-size="8" font-weight="700">Fat JAR</text>
  <text x="490" y="271" text-anchor="middle" fill="#6B7280" font-size="6">greeting-api-1.0-SNAPSHOT.jar</text>
  <text x="490" y="281" text-anchor="middle" fill="#6B7280" font-size="6">BOOT-INF + Embedded Tomcat</text>

  <!-- Quality badges -->
  <rect x="425" y="298" width="60" height="18" rx="4" fill="#E74C3C" opacity="0.2"/>
  <text x="455" y="311" text-anchor="middle" fill="#E74C3C" font-size="6.5" font-weight="700">JaCoCo 80%</text>
  <rect x="495" y="298" width="60" height="18" rx="4" fill="#E74C3C" opacity="0.2"/>
  <text x="525" y="311" text-anchor="middle" fill="#E74C3C" font-size="6.5" font-weight="700">Sonar Ready</text>

  <rect x="425" y="323" width="130" height="18" rx="4" fill="#6DB33F" opacity="0.1"/>
  <text x="490" y="336" text-anchor="middle" fill="#6DB33F" font-size="7">Artifact: 229MB Runtime Image</text>

  <!-- Arrow 3: Package → Docker Build -->
  <line x1="570" y1="250" x2="608" y2="250" stroke="#2496ED" stroke-width="2" marker-end="url(#arrowBlue)" class="arrow-main-3"/>
  <circle cx="572" cy="250" r="4" fill="#2496ED" class="pulse-dot"/>

  <!-- ===================== -->
  <!-- STAGE 4: DOCKER BUILD -->
  <!-- ===================== -->
  <rect x="610" y="120" width="175" height="280" rx="10" fill="#161B22" stroke="#2496ED" stroke-width="1.5"/>
  <rect x="610" y="120" width="175" height="28" rx="10" fill="#2496ED" opacity="0.15"/>
  <text x="697" y="138" text-anchor="middle" fill="#2496ED" font-size="9" font-weight="700" letter-spacing="1">DOCKER MULTI-STAGE</text>

  <!-- Stage 1 builder -->
  <rect x="622" y="158" width="151" height="100" rx="6" fill="#0D1117" stroke="#2496ED" stroke-width="1" opacity="0.7"/>
  <text x="697" y="173" text-anchor="middle" fill="#2496ED" font-size="8" font-weight="700">Stage 1 — Builder</text>
  <line x1="632" y1="178" x2="763" y2="178" stroke="#2496ED" stroke-width="0.5" opacity="0.4"/>
  <text x="697" y="192" text-anchor="middle" fill="#6B7280" font-size="7">maven:3.9.6-eclipse-temurin-21</text>
  <text x="697" y="204" text-anchor="middle" fill="#6B7280" font-size="7">JDK 21 + Maven + Build Tools</text>
  <text x="697" y="216" text-anchor="middle" fill="#6B7280" font-size="7">Compile + Test + Package</text>
  <rect x="632" y="222" width="141" height="16" rx="3" fill="#2496ED" opacity="0.1"/>
  <text x="697" y="234" text-anchor="middle" fill="#2496ED" font-size="6.5">Full Build Environment</text>

  <!-- Down arrow between stages -->
  <line x1="697" y1="258" x2="697" y2="278" stroke="#2496ED" stroke-width="1.5" stroke-dasharray="4,2" marker-end="url(#arrowBlue)"/>
  <text x="712" y="272" fill="#4A5568" font-size="6.5">COPY app.jar only</text>

  <!-- Stage 2 runtime -->
  <rect x="622" y="280" width="151" height="90" rx="6" fill="#0D1117" stroke="#6DB33F" stroke-width="1" opacity="0.8"/>
  <text x="697" y="296" text-anchor="middle" fill="#6DB33F" font-size="8" font-weight="700">Stage 2 — Runtime</text>
  <line x1="632" y1="301" x2="763" y2="301" stroke="#6DB33F" stroke-width="0.5" opacity="0.4"/>
  <text x="697" y="314" text-anchor="middle" fill="#6B7280" font-size="7">eclipse-temurin:21-jre-alpine</text>
  <text x="697" y="325" text-anchor="middle" fill="#6B7280" font-size="7">JRE only — No Maven, No JDK</text>
  <text x="697" y="336" text-anchor="middle" fill="#6B7280" font-size="7">mkdir /app/logs</text>
  <rect x="632" y="343" width="141" height="16" rx="3" fill="#6DB33F" opacity="0.1"/>
  <text x="697" y="355" text-anchor="middle" fill="#6DB33F" font-size="6.5">Optimized Production Image</text>

  <!-- Badge -->
  <rect x="622" y="382" width="151" height="18" rx="4" fill="#2496ED" opacity="0.15"/>
  <text x="697" y="395" text-anchor="middle" fill="#2496ED" font-size="7" font-weight="700">prod profile active at runtime</text>

  <!-- Arrow 4: Docker Build → Image -->
  <line x1="785" y1="260" x2="820" y2="260" stroke="#2496ED" stroke-width="2" marker-end="url(#arrowBlue)" class="arrow-main-4"/>
  <circle cx="787" cy="260" r="4" fill="#2496ED" class="pulse-dot"/>

  <!-- ===================== -->
  <!-- STAGE 5: IMAGE        -->
  <!-- ===================== -->
  <rect x="822" y="210" width="130" height="100" rx="10" fill="#161B22" stroke="#2496ED" stroke-width="1.5"/>
  <rect x="822" y="210" width="130" height="28" rx="10" fill="#2496ED" opacity="0.15"/>
  <text x="887" y="228" text-anchor="middle" fill="#2496ED" font-size="9" font-weight="700" letter-spacing="1">DOCKER IMAGE</text>
  <!-- Docker whale icon simplified -->
  <rect x="865" y="244" width="44" height="28" rx="4" fill="#2496ED" opacity="0.3"/>
  <rect x="869" y="240" width="10" height="8" rx="2" fill="#2496ED" opacity="0.5"/>
  <rect x="883" y="237" width="10" height="8" rx="2" fill="#2496ED" opacity="0.5"/>
  <rect x="897" y="241" width="10" height="8" rx="2" fill="#2496ED" opacity="0.5"/>
  <text x="887" y="286" text-anchor="middle" fill="#FFFFFF" font-size="8" font-weight="700">greeting-api:latest</text>
  <text x="887" y="298" text-anchor="middle" fill="#4A5568" font-size="7">229MB</text>

  <!-- Arrow 5: Image → Compose -->
  <line x1="952" y1="260" x2="987" y2="260" stroke="#2496ED" stroke-width="2" marker-end="url(#arrowBlue)" class="arrow-main-5"/>
  <circle cx="954" cy="260" r="4" fill="#2496ED" class="pulse-dot"/>

  <!-- ===================== -->
  <!-- STAGE 6: COMPOSE      -->
  <!-- ===================== -->
  <rect x="990" y="80" width="370" height="430" rx="12" fill="#161B22" stroke="#2496ED" stroke-width="2"/>
  <rect x="990" y="80" width="370" height="30" rx="12" fill="#2496ED" opacity="0.15"/>
  <text x="1175" y="100" text-anchor="middle" fill="#2496ED" font-size="10" font-weight="700" letter-spacing="2">DOCKER COMPOSE STACK</text>

  <!-- Network border -->
  <rect x="1003" y="120" width="344" height="270" rx="8" fill="none" stroke="#2496ED" stroke-width="1" stroke-dasharray="6,3" opacity="0.5"/>
  <text x="1175" y="137" text-anchor="middle" fill="#2496ED" font-size="7" opacity="0.7">greetings-net — bridge network</text>

  <!-- Container 1: greeting-api -->
  <rect x="1013" y="145" width="100" height="225" rx="8" fill="#0D1117" stroke="#6DB33F" stroke-width="1.5"/>
  <rect x="1013" y="145" width="100" height="22" rx="8" fill="#6DB33F" opacity="0.2"/>
  <text x="1063" y="160" text-anchor="middle" fill="#6DB33F" font-size="8" font-weight="700">greeting-api</text>
  <line x1="1013" y1="167" x2="1113" y2="167" stroke="#6DB33F" stroke-width="0.5" opacity="0.3"/>
  <text x="1063" y="182" text-anchor="middle" fill="#6B7280" font-size="7">Spring Boot</text>
  <text x="1063" y="194" text-anchor="middle" fill="#6B7280" font-size="7">Port: 9080</text>
  <rect x="1023" y="203" width="80" height="14" rx="3" fill="#1ABC9C" opacity="0.2"/>
  <text x="1063" y="214" text-anchor="middle" fill="#1ABC9C" font-size="6.5" font-weight="700">prod profile</text>
  <text x="1063" y="232" text-anchor="middle" fill="#6B7280" font-size="6.5">GET /greet</text>
  <text x="1063" y="244" text-anchor="middle" fill="#6B7280" font-size="6.5">GET /actuator</text>
  <rect x="1023" y="253" width="80" height="14" rx="3" fill="#9B59B6" opacity="0.2"/>
  <text x="1063" y="264" text-anchor="middle" fill="#9B59B6" font-size="6.5">Logback Active</text>
  <text x="1063" y="279" text-anchor="middle" fill="#6B7280" font-size="6.5">RollingFile</text>
  <text x="1063" y="291" text-anchor="middle" fill="#6B7280" font-size="6.5">/app/logs/</text>
  <text x="1063" y="305" text-anchor="middle" fill="#6B7280" font-size="6.5">SLF4J → Logback</text>
  <rect x="1023" y="315" width="80" height="14" rx="3" fill="#6DB33F" opacity="0.1"/>
  <text x="1063" y="326" text-anchor="middle" fill="#6DB33F" font-size="6.5">Java 21 Runtime</text>
  <text x="1063" y="345" text-anchor="middle" fill="#4A5568" font-size="6">greeting-api:latest</text>
  <text x="1063" y="357" text-anchor="middle" fill="#4A5568" font-size="6">eclipse-temurin:21-jre</text>

  <!-- Network connection lines between containers -->
  <line x1="1113" y1="257" x2="1133" y2="257" stroke="#2496ED" stroke-width="1" stroke-dasharray="3,2" opacity="0.5"/>
  <line x1="1233" y1="257" x2="1253" y2="257" stroke="#2496ED" stroke-width="1" stroke-dasharray="3,2" opacity="0.5"/>

  <!-- Container 2: SonarQube -->
  <rect x="1133" y="145" width="100" height="225" rx="8" fill="#0D1117" stroke="#E74C3C" stroke-width="1.5"/>
  <rect x="1133" y="145" width="100" height="22" rx="8" fill="#E74C3C" opacity="0.2"/>
  <text x="1183" y="160" text-anchor="middle" fill="#E74C3C" font-size="8" font-weight="700">sonarqube</text>
  <line x1="1133" y1="167" x2="1233" y2="167" stroke="#E74C3C" stroke-width="0.5" opacity="0.3"/>
  <text x="1183" y="182" text-anchor="middle" fill="#6B7280" font-size="7">Static Analysis</text>
  <text x="1183" y="194" text-anchor="middle" fill="#6B7280" font-size="7">Port: 9000</text>
  <rect x="1143" y="203" width="80" height="14" rx="3" fill="#E74C3C" opacity="0.15"/>
  <text x="1183" y="214" text-anchor="middle" fill="#E74C3C" font-size="6.5">lts-community</text>
  <text x="1183" y="232" text-anchor="middle" fill="#6B7280" font-size="6.5">Code Smells</text>
  <text x="1183" y="244" text-anchor="middle" fill="#6B7280" font-size="6.5">Bugs + Security</text>
  <text x="1183" y="256" text-anchor="middle" fill="#6B7280" font-size="6.5">Duplications</text>
  <text x="1183" y="268" text-anchor="middle" fill="#6B7280" font-size="6.5">Coverage Gate</text>
  <rect x="1143" y="278" width="80" height="14" rx="3" fill="#E74C3C" opacity="0.1"/>
  <text x="1183" y="289" text-anchor="middle" fill="#E74C3C" font-size="6.5">Quality Gate</text>
  <text x="1183" y="305" text-anchor="middle" fill="#6B7280" font-size="6.5">JaCoCo Report</text>
  <text x="1183" y="317" text-anchor="middle" fill="#6B7280" font-size="6.5">91.7% Coverage</text>
  <text x="1183" y="345" text-anchor="middle" fill="#4A5568" font-size="6">sonarqube:lts-community</text>

  <!-- Container 3: Snyk -->
  <rect x="1253" y="145" width="100" height="225" rx="8" fill="#0D1117" stroke="#E74C3C" stroke-width="1.5"/>
  <rect x="1253" y="145" width="100" height="22" rx="8" fill="#E74C3C" opacity="0.2"/>
  <text x="1303" y="160" text-anchor="middle" fill="#E74C3C" font-size="8" font-weight="700">snyk</text>
  <line x1="1253" y1="167" x2="1353" y2="167" stroke="#E74C3C" stroke-width="0.5" opacity="0.3"/>
  <text x="1303" y="182" text-anchor="middle" fill="#6B7280" font-size="7">Vulnerability Scan</text>
  <text x="1303" y="194" text-anchor="middle" fill="#6B7280" font-size="7">Maven + Image</text>
  <rect x="1263" y="203" width="80" height="14" rx="3" fill="#E74C3C" opacity="0.15"/>
  <text x="1303" y="214" text-anchor="middle" fill="#E74C3C" font-size="6.5">snyk/snyk:maven</text>
  <text x="1303" y="232" text-anchor="middle" fill="#6B7280" font-size="6.5">CVE Scanning</text>
  <text x="1303" y="244" text-anchor="middle" fill="#6B7280" font-size="6.5">Dep Tree Check</text>
  <text x="1303" y="256" text-anchor="middle" fill="#6B7280" font-size="6.5">Image Scan</text>
  <text x="1303" y="268" text-anchor="middle" fill="#6B7280" font-size="6.5">SNYK_TOKEN env</text>
  <rect x="1263" y="278" width="80" height="14" rx="3" fill="#E74C3C" opacity="0.1"/>
  <text x="1303" y="289" text-anchor="middle" fill="#E74C3C" font-size="6.5">Security Gate</text>
  <text x="1303" y="305" text-anchor="middle" fill="#6B7280" font-size="6.5">Critical / High</text>
  <text x="1303" y="317" text-anchor="middle" fill="#6B7280" font-size="6.5">Medium / Low</text>
  <text x="1303" y="345" text-anchor="middle" fill="#4A5568" font-size="6">snyk/snyk:maven</text>

  <!-- Volumes label -->
  <rect x="1003" y="400" width="344" height="40" rx="6" fill="#0D1117" stroke="#4A5568" stroke-width="1" opacity="0.6"/>
  <text x="1175" y="415" text-anchor="middle" fill="#4A5568" font-size="7" font-weight="700">PERSISTENT VOLUMES</text>
  <text x="1175" y="430" text-anchor="middle" fill="#4A5568" font-size="6.5">greeting-logs  |  sonarqube_data  |  sonarqube_extensions  |  sonarqube_logs</text>

  <!-- Arrow 6: Compose → User -->
  <line x1="1360" y1="295" x2="1398" y2="295" stroke="#6DB33F" stroke-width="2" marker-end="url(#arrowGreen)" class="arrow-main-6"/>
  <circle cx="1362" cy="295" r="4" fill="#6DB33F" class="pulse-dot"/>

  <!-- ===================== -->
  <!-- STAGE 7: RUNTIME      -->
  <!-- ===================== -->
  <rect x="1400" y="160" width="185" height="270" rx="10" fill="#161B22" stroke="#6DB33F" stroke-width="1.5"/>
  <rect x="1400" y="160" width="185" height="28" rx="10" fill="#6DB33F" opacity="0.15"/>
  <text x="1492" y="178" text-anchor="middle" fill="#6DB33F" font-size="9" font-weight="700" letter-spacing="1">RUNTIME</text>

  <!-- HTTP Endpoints -->
  <rect x="1412" y="198" width="161" height="40" rx="5" fill="#0D1117" stroke="#6DB33F" stroke-width="1" opacity="0.8"/>
  <text x="1492" y="213" text-anchor="middle" fill="#6DB33F" font-size="7.5" font-weight="700">GET /greet?name=Kate</text>
  <text x="1492" y="228" text-anchor="middle" fill="#4A5568" font-size="6.5">→ Hello, Kate!</text>

  <rect x="1412" y="248" width="161" height="30" rx="5" fill="#0D1117" stroke="#6DB33F" stroke-width="1" opacity="0.6"/>
  <text x="1492" y="265" text-anchor="middle" fill="#6DB33F" font-size="7">GET /actuator/health</text>
  <text x="1492" y="276" text-anchor="middle" fill="#4A5568" font-size="6.5">status: UP</text>

  <!-- Logging -->
  <rect x="1412" y="288" width="161" height="55" rx="5" fill="#0D1117" stroke="#9B59B6" stroke-width="1" opacity="0.8"/>
  <text x="1492" y="303" text-anchor="middle" fill="#9B59B6" font-size="7.5" font-weight="700">Logback — Prod</text>
  <line x1="1422" y1="308" x2="1563" y2="308" stroke="#9B59B6" stroke-width="0.5" opacity="0.3"/>
  <text x="1492" y="321" text-anchor="middle" fill="#6B7280" font-size="6.5">RollingFileAppender</text>
  <text x="1492" y="332" text-anchor="middle" fill="#6B7280" font-size="6.5">/app/logs/greeting-api.log</text>
  <text x="1492" y="343" text-anchor="middle" fill="#6B7280" font-size="6.5">Rotate: 10MB / 30 days</text>

  <!-- Profile badge -->
  <rect x="1412" y="353" width="75" height="18" rx="4" fill="#1ABC9C" opacity="0.15"/>
  <text x="1449" y="366" text-anchor="middle" fill="#1ABC9C" font-size="6.5" font-weight="700">prod profile</text>
  <rect x="1498" y="353" width="75" height="18" rx="4" fill="#9B59B6" opacity="0.15"/>
  <text x="1535" y="366" text-anchor="middle" fill="#9B59B6" font-size="6.5" font-weight="700">SLF4J + Logback</text>

  <rect x="1412" y="380" width="161" height="30" rx="5" fill="#0D1117" stroke="#1ABC9C" stroke-width="1" opacity="0.6"/>
  <text x="1492" y="394" text-anchor="middle" fill="#1ABC9C" font-size="7">Spring Profiles</text>
  <text x="1492" y="406" text-anchor="middle" fill="#4A5568" font-size="6.5">dev:9090 console  |  prod:9080 file</text>

  <!-- ===================== -->
  <!-- BOTTOM LABELS         -->
  <!-- ===================== -->
  <rect x="20" y="520" width="120" height="22" rx="4" fill="#9B59B6" opacity="0.15"/>
  <text x="80" y="535" text-anchor="middle" fill="#9B59B6" font-size="7.5" font-weight="700">SLF4J + Logback</text>

  <rect x="155" y="520" width="140" height="22" rx="4" fill="#1ABC9C" opacity="0.15"/>
  <text x="225" y="535" text-anchor="middle" fill="#1ABC9C" font-size="7.5" font-weight="700">Spring Profiles — dev | prod</text>

  <rect x="310" y="520" width="160" height="22" rx="4" fill="#2496ED" opacity="0.15"/>
  <text x="390" y="535" text-anchor="middle" fill="#2496ED" font-size="7.5" font-weight="700">Docker Compose Orchestration</text>

  <rect x="485" y="520" width="170" height="22" rx="4" fill="#E74C3C" opacity="0.15"/>
  <text x="570" y="535" text-anchor="middle" fill="#E74C3C" font-size="7.5" font-weight="700">Static Analysis + CVE Scanning</text>

  <rect x="670" y="520" width="175" height="22" rx="4" fill="#F4A836" opacity="0.15"/>
  <text x="757" y="535" text-anchor="middle" fill="#F4A836" font-size="7.5" font-weight="700">Maven Multi-Module Inheritance</text>

  <rect x="860" y="520" width="150" height="22" rx="4" fill="#6DB33F" opacity="0.15"/>
  <text x="935" y="535" text-anchor="middle" fill="#6DB33F" font-size="7.5" font-weight="700">Profile-Aware Runtime</text>

  <!-- Bottom divider -->
  <line x1="20" y1="560" x2="1580" y2="560" stroke="#161B22" stroke-width="1"/>
  <text x="800" y="578" text-anchor="middle" fill="#4A5568" font-size="7" letter-spacing="2">greeting-service · build-systems-lab · Kate-mwaura · Java 21 · Spring Boot 4.0.6 · Maven 3.9.6 · Docker · SonarQube · Snyk</text>
</svg>
